<svg viewBox="0 0 28 28" fill="none" xmlns="http://www.w3.org/2000/svg">
<path d="M10.5175 3.48218V24.375M17.4818 3.48218V24.375M9.12465 3.48218H18.8747C20.8248 3.48218 21.7999 3.48218 22.5448 3.86171C23.2 4.19555 23.7327 4.72825 24.0665 5.38346C24.4461 6.12833 24.4461 7.10342 24.4461 9.05361V18.8036C24.4461 20.7538 24.4461 21.7289 24.0665 22.4738C23.7327 23.129 23.2 23.6617 22.5448 23.9955C21.7999 24.375 20.8248 24.375 18.8747 24.375H9.12465C7.17447 24.375 6.19938 24.375 5.45451 23.9955C4.7993 23.6617 4.2666 23.129 3.93275 22.4738C3.55322 21.7289 3.55322 20.7538 3.55322 18.8036V9.05361C3.55322 7.10342 3.55322 6.12833 3.93275 5.38346C4.2666 4.72825 4.7993 4.19555 5.45451 3.86171C6.19938 3.48218 7.17447 3.48218 9.12465 3.48218Z" stroke="currentColor" stroke-width="2.08929" stroke-linecap="round" stroke-linejoin="round"/>
</svg>
