<svg width="28" height="28" viewBox="0 0 28 28" fill="none" xmlns="http://www.w3.org/2000/svg">
<path d="M12.839 5.22332H21.3122C22.6123 5.22332 23.2624 5.22332 23.759 5.47634C24.1958 5.6989 24.5509 6.05404 24.7735 6.49084C25.0265 6.98742 25.0265 7.63748 25.0265 8.9376V10.4465C25.0265 11.5282 25.0265 12.069 24.8498 12.4956C24.6142 13.0644 24.1623 13.5164 23.5934 13.752C23.1668 13.9287 22.626 13.9287 21.5444 13.9287M15.1604 22.634H6.68722C5.3871 22.634 4.73704 22.634 4.24046 22.381C3.80365 22.1584 3.44852 21.8033 3.22596 21.3665C2.97294 20.8699 2.97294 20.2199 2.97294 18.9197V17.4108C2.97294 16.3292 2.97294 15.7883 3.14964 15.3617C3.38525 14.7929 3.83718 14.341 4.40599 14.1054C4.8326 13.9287 5.37343 13.9287 6.45508 13.9287M12.0265 16.8305H15.9729C16.298 16.8305 16.4605 16.8305 16.5846 16.7672C16.6938 16.7116 16.7826 16.6228 16.8383 16.5136C16.9015 16.3894 16.9015 16.2269 16.9015 15.9019V11.9555C16.9015 11.6304 16.9015 11.4679 16.8383 11.3438C16.7826 11.2346 16.6938 11.1458 16.5846 11.0901C16.4605 11.0269 16.298 11.0269 15.9729 11.0269H12.0265C11.7015 11.0269 11.539 11.0269 11.4148 11.0901C11.3056 11.1458 11.2168 11.2346 11.1612 11.3438C11.0979 11.4679 11.0979 11.6304 11.0979 11.9555V15.9019C11.0979 16.2269 11.0979 16.3894 11.1612 16.5136C11.2168 16.6228 11.3056 16.7116 11.4148 16.7672C11.539 16.8305 11.7015 16.8305 12.0265 16.8305ZM20.7319 25.5358H24.6783C25.0033 25.5358 25.1658 25.5358 25.29 25.4726C25.3992 25.4169 25.488 25.3281 25.5436 25.2189C25.6069 25.0948 25.6069 24.9323 25.6069 24.6072V20.6608C25.6069 20.3358 25.6069 20.1733 25.5436 20.0491C25.488 19.9399 25.3992 19.8511 25.29 19.7955C25.1658 19.7322 25.0033 19.7322 24.6783 19.7322H20.7319C20.4068 19.7322 20.2443 19.7322 20.1202 19.7955C20.011 19.8511 19.9222 19.9399 19.8665 20.0491C19.8033 20.1733 19.8033 20.3358 19.8033 20.6608V24.6072C19.8033 24.9323 19.8033 25.0948 19.8665 25.2189C19.9222 25.3281 20.011 25.4169 20.1202 25.4726C20.2443 25.5358 20.4068 25.5358 20.7319 25.5358ZM3.32115 8.1251H7.26758C7.59261 8.1251 7.75512 8.1251 7.87927 8.06185C7.98847 8.00621 8.07725 7.91743 8.13289 7.80822C8.19615 7.68408 8.19615 7.52156 8.19615 7.19653V3.2501C8.19615 2.92507 8.19615 2.76256 8.13289 2.63841C8.07725 2.52921 7.98847 2.44043 7.87927 2.38479C7.75512 2.32153 7.59261 2.32153 7.26758 2.32153H3.32115C2.99612 2.32153 2.8336 2.32153 2.70946 2.38479C2.60026 2.44043 2.51147 2.52921 2.45583 2.63841C2.39258 2.76256 2.39258 2.92507 2.39258 3.2501V7.19653C2.39258 7.52156 2.39258 7.68408 2.45583 7.80822C2.51147 7.91743 2.60026 8.00621 2.70946 8.06185C2.8336 8.1251 2.99612 8.1251 3.32115 8.1251Z" stroke="currentColor" stroke-width="2.08929" stroke-linecap="round" stroke-linejoin="round"/>
</svg>
