<svg width="18" height="19" viewBox="0 0 18 19" fill="none" xmlns="http://www.w3.org/2000/svg">
<path d="M15.75 9.5L6.75 9.5M15.75 5L6.75 5M15.75 14L6.75 14M3.75 9.5C3.75 9.91421 3.41421 10.25 3 10.25C2.58579 10.25 2.25 9.91421 2.25 9.5C2.25 9.08579 2.58579 8.75 3 8.75C3.41421 8.75 3.75 9.08579 3.75 9.5ZM3.75 5C3.75 5.41421 3.41421 5.75 3 5.75C2.58579 5.75 2.25 5.41421 2.25 5C2.25 4.58579 2.58579 4.25 3 4.25C3.41421 4.25 3.75 4.58579 3.75 5ZM3.75 14C3.75 14.4142 3.41421 14.75 3 14.75C2.58579 14.75 2.25 14.4142 2.25 14C2.25 13.5858 2.58579 13.25 3 13.25C3.41421 13.25 3.75 13.5858 3.75 14Z" stroke="currentColor" stroke-width="1.4" stroke-linecap="round" stroke-linejoin="round"/>
</svg>
