<svg width="18" height="18" viewBox="0 0 18 18" fill="none" xmlns="http://www.w3.org/2000/svg">
<path d="M12 4.5C12.4142 4.5 12.75 4.16421 12.75 3.75C12.75 3.33579 12.4142 3 12 3C11.5858 3 11.25 3.33579 11.25 3.75C11.25 4.16421 11.5858 4.5 12 4.5Z" stroke="#303030" stroke-width="1.8" stroke-linecap="round" stroke-linejoin="round"/>
<path d="M12 9.75C12.4142 9.75 12.75 9.41421 12.75 9C12.75 8.58579 12.4142 8.25 12 8.25C11.5858 8.25 11.25 8.58579 11.25 9C11.25 9.41421 11.5858 9.75 12 9.75Z" stroke="#303030" stroke-width="1.8" stroke-linecap="round" stroke-linejoin="round"/>
<path d="M12 15C12.4142 15 12.75 14.6642 12.75 14.25C12.75 13.8358 12.4142 13.5 12 13.5C11.5858 13.5 11.25 13.8358 11.25 14.25C11.25 14.6642 11.5858 15 12 15Z" stroke="#303030" stroke-width="1.8" stroke-linecap="round" stroke-linejoin="round"/>
<path d="M6.75003 4.5C7.16424 4.5 7.50003 4.16421 7.50003 3.75C7.50003 3.33579 7.16424 3 6.75003 3C6.33582 3 6.00003 3.33579 6.00003 3.75C6.00003 4.16421 6.33582 4.5 6.75003 4.5Z" stroke="#303030" stroke-width="1.8" stroke-linecap="round" stroke-linejoin="round"/>
<path d="M6.75003 9.75C7.16424 9.75 7.50003 9.41421 7.50003 9C7.50003 8.58579 7.16424 8.25 6.75003 8.25C6.33582 8.25 6.00003 8.58579 6.00003 9C6.00003 9.41421 6.33582 9.75 6.75003 9.75Z" stroke="#303030" stroke-width="1.8" stroke-linecap="round" stroke-linejoin="round"/>
<path d="M6.75003 15C7.16424 15 7.50003 14.6642 7.50003 14.25C7.50003 13.8358 7.16424 13.5 6.75003 13.5C6.33582 13.5 6.00003 13.8358 6.00003 14.25C6.00003 14.6642 6.33582 15 6.75003 15Z" stroke="#303030" stroke-width="1.8" stroke-linecap="round" stroke-linejoin="round"/>
</svg>
