<svg viewBox="0 0 28 28" fill="none" xmlns="http://www.w3.org/2000/svg">
<path d="M12.2586 2.32478C11.4751 2.3354 11.0047 2.38076 10.6244 2.57455C10.1876 2.79712 9.83245 3.15225 9.60988 3.58906C9.41609 3.9694 9.37073 4.43978 9.36011 5.22332M22.7051 2.32478C23.4886 2.3354 23.959 2.38076 24.3393 2.57455C24.7761 2.79712 25.1313 3.15225 25.3538 3.58906C25.5476 3.9694 25.593 4.43977 25.6036 5.22331M25.6036 15.6697C25.593 16.4533 25.5476 16.9237 25.3538 17.304C25.1313 17.7408 24.7761 18.0959 24.3393 18.3185C23.959 18.5123 23.4886 18.5577 22.7051 18.5683M25.6069 9.28581V11.6072M16.3212 2.32153H18.6425M6.10686 25.5358H14.9283C16.2284 25.5358 16.8785 25.5358 17.3751 25.2828C17.8119 25.0602 18.167 24.7051 18.3896 24.2683C18.6426 23.7717 18.6426 23.1217 18.6426 21.8215V13.0001C18.6426 11.7 18.6426 11.0499 18.3896 10.5533C18.167 10.1165 17.8119 9.7614 17.3751 9.53884C16.8785 9.28582 16.2284 9.28582 14.9283 9.28582H6.10686C4.80674 9.28582 4.15668 9.28582 3.6601 9.53884C3.2233 9.7614 2.86816 10.1165 2.6456 10.5533C2.39258 11.0499 2.39258 11.7 2.39258 13.0001V21.8215C2.39258 23.1217 2.39258 23.7717 2.6456 24.2683C2.86816 24.7051 3.2233 25.0602 3.6601 25.2828C4.15668 25.5358 4.80674 25.5358 6.10686 25.5358Z" stroke="currentColor" stroke-width="2.08929" stroke-linecap="round" stroke-linejoin="round"/>
</svg>
