<svg viewBox="0 0 29 28" fill="none" xmlns="http://www.w3.org/2000/svg">
<path d="M13.339 4.64291H8.46401C6.51382 4.64291 5.53873 4.64291 4.79386 5.02244C4.13865 5.35629 3.60595 5.88899 3.27211 6.5442C2.89258 7.28907 2.89258 8.26416 2.89258 10.2143V19.9643C2.89258 21.9145 2.89258 22.8896 3.27211 23.6345C3.60595 24.2897 4.13865 24.8224 4.79386 25.1562C5.53873 25.5358 6.51382 25.5358 8.46401 25.5358H18.214C20.1642 25.5358 21.1393 25.5358 21.8842 25.1562C22.5394 24.8224 23.0721 24.2897 23.4059 23.6345C23.7854 22.8896 23.7854 21.9145 23.7854 19.9643V15.0893M9.85683 18.5715H11.8005C12.3683 18.5715 12.6522 18.5715 12.9194 18.5073C13.1562 18.4505 13.3827 18.3567 13.5904 18.2294C13.8247 18.0858 14.0254 17.8851 14.4269 17.4836L25.5265 6.38398C26.4881 5.42242 26.4881 3.86341 25.5265 2.90184C24.5649 1.94027 23.0059 1.94027 22.0444 2.90184L10.9447 14.0015C10.5432 14.4029 10.3425 14.6037 10.1989 14.838C10.0716 15.0457 9.97784 15.2721 9.92097 15.509C9.85683 15.7761 9.85683 16.06 9.85683 16.6279V18.5715Z" stroke="currentColor" stroke-width="2.08929" stroke-linecap="round" stroke-linejoin="round"/>
</svg>
