<svg width="18" height="19" viewBox="0 0 18 19" fill="none" xmlns="http://www.w3.org/2000/svg">
<path d="M1.81509 10.0349C1.71295 9.87315 1.66188 9.79229 1.63329 9.66756C1.61182 9.57387 1.61182 9.42613 1.63329 9.33244C1.66188 9.20771 1.71295 9.12685 1.81509 8.96512C2.65915 7.62863 5.17155 4.25 9.0003 4.25C12.8291 4.25 15.3415 7.62863 16.1855 8.96512C16.2877 9.12685 16.3387 9.20771 16.3673 9.33244C16.3888 9.42613 16.3888 9.57387 16.3673 9.66756C16.3387 9.79229 16.2877 9.87315 16.1855 10.0349C15.3415 11.3714 12.8291 14.75 9.0003 14.75C5.17155 14.75 2.65915 11.3714 1.81509 10.0349Z" stroke="currentColor" stroke-width="1.4" stroke-linecap="round" stroke-linejoin="round"/>
<path d="M9.0003 11.75C10.2429 11.75 11.2503 10.7426 11.2503 9.5C11.2503 8.25736 10.2429 7.25 9.0003 7.25C7.75766 7.25 6.7503 8.25736 6.7503 9.5C6.7503 10.7426 7.75766 11.75 9.0003 11.75Z" stroke="currentColor" stroke-width="1.4" stroke-linecap="round" stroke-linejoin="round"/>
</svg>
