<svg viewBox="0 0 28 28" fill="none" xmlns="http://www.w3.org/2000/svg">
<g clip-path="url(#clip0_3870_7063)">
<path d="M23.2858 14.509V7.89296C23.2858 5.94278 23.2858 4.96769 22.9063 4.22282C22.5724 3.56761 22.0397 3.03491 21.3845 2.70106C20.6396 2.32153 19.6645 2.32153 17.7144 2.32153H10.2858C8.3356 2.32153 7.36051 2.32153 6.61564 2.70106C5.96043 3.03491 5.42773 3.56761 5.09389 4.22282C4.71436 4.96769 4.71436 5.94278 4.71436 7.89296V19.9644C4.71436 21.9146 4.71436 22.8897 5.09389 23.6345C5.42773 24.2897 5.96043 24.8224 6.61564 25.1563C7.36051 25.5358 8.33557 25.5358 10.2857 25.5358H14.0001M19.4167 20.893L22.512 19.1519V26.3096" stroke="currentColor" stroke-width="2.08929" stroke-linecap="round" stroke-linejoin="round"/>
</g>
<defs>
<clipPath id="clip0_3870_7063">
<rect width="27.8571" height="27.8571" fill="white" transform="translate(0.0712891)"/>
</clipPath>
</defs>
</svg>
