<svg viewBox="0 0 18 19" fill="none" xmlns="http://www.w3.org/2000/svg">
<path d="M3 16.25L3 3.5M3 10.25H8.55C8.97004 10.25 9.18006 10.25 9.34049 10.1683C9.48161 10.0963 9.59635 9.98161 9.66825 9.84049C9.75 9.68006 9.75 9.47004 9.75 9.05V3.95C9.75 3.52996 9.75 3.31994 9.66825 3.15951C9.59635 3.01839 9.48161 2.90365 9.34049 2.83175C9.18006 2.75 8.97004 2.75 8.55 2.75H4.2C3.77996 2.75 3.56994 2.75 3.40951 2.83175C3.26839 2.90365 3.15365 3.01839 3.08175 3.15951C3 3.31994 3 3.52996 3 3.95V10.25ZM9.75 4.25H14.55C14.97 4.25 15.1801 4.25 15.3405 4.33175C15.4816 4.40365 15.5963 4.51839 15.6683 4.65951C15.75 4.81994 15.75 5.02996 15.75 5.45V10.55C15.75 10.97 15.75 11.1801 15.6683 11.3405C15.5963 11.4816 15.4816 11.5963 15.3405 11.6683C15.1801 11.75 14.97 11.75 14.55 11.75H10.95C10.53 11.75 10.3199 11.75 10.1595 11.6683C10.0184 11.5963 9.90365 11.4816 9.83175 11.3405C9.75 11.1801 9.75 10.97 9.75 10.55V4.25Z" stroke="currentColor" stroke-width="1.4" stroke-linecap="round" stroke-linejoin="round"/>
</svg>
