<svg viewBox="0 0 28 28" fill="none" xmlns="http://www.w3.org/2000/svg">
<path d="M15.1604 8.12503L13.8656 5.53538C13.493 4.79007 13.3066 4.4174 13.0286 4.14514C12.7828 3.90437 12.4865 3.72125 12.1612 3.60905C11.7934 3.48218 11.3767 3.48218 10.5435 3.48218H6.10686C4.80674 3.48218 4.15668 3.48218 3.6601 3.7352C3.2233 3.95776 2.86816 4.31289 2.6456 4.7497C2.39258 5.24628 2.39258 5.89634 2.39258 7.19646V8.12503M2.39258 8.12503H20.0354C21.9856 8.12503 22.9607 8.12503 23.7056 8.50457C24.3608 8.83841 24.8935 9.37111 25.2273 10.0263C25.6069 10.7712 25.6069 11.7463 25.6069 13.6965V18.8036C25.6069 20.7538 25.6069 21.7289 25.2273 22.4738C24.8935 23.129 24.3608 23.6617 23.7056 23.9955C22.9607 24.375 21.9856 24.375 20.0354 24.375H7.96401C6.01382 24.375 5.03873 24.375 4.29386 23.9955C3.63865 23.6617 3.10595 23.129 2.77211 22.4738C2.39258 21.7289 2.39258 20.7538 2.39258 18.8036V8.12503ZM13.9997 20.1191L17.8688 16.25M17.8688 16.25L13.9997 12.381M17.8688 16.25H10.1307" stroke="currentColor" stroke-width="2.08929" stroke-linecap="round" stroke-linejoin="round"/>
</svg>
