<svg width="29" height="28" viewBox="0 0 29 28" fill="none" xmlns="http://www.w3.org/2000/svg">
<path d="M15.6604 8.12503L14.3656 5.53538C13.993 4.79007 13.8066 4.4174 13.5286 4.14514C13.2828 3.90437 12.9865 3.72125 12.6612 3.60905C12.2934 3.48218 11.8767 3.48218 11.0435 3.48218H6.60686C5.30674 3.48218 4.65668 3.48218 4.1601 3.7352C3.7233 3.95776 3.36816 4.31289 3.1456 4.7497C2.89258 5.24628 2.89258 5.89634 2.89258 7.19646V8.12503M2.89258 8.12503H20.5354C22.4856 8.12503 23.4607 8.12503 24.2056 8.50457C24.8608 8.83841 25.3935 9.37111 25.7273 10.0263C26.1069 10.7712 26.1069 11.7463 26.1069 13.6965V18.8036C26.1069 20.7538 26.1069 21.7289 25.7273 22.4738C25.3935 23.129 24.8608 23.6617 24.2056 23.9955C23.4607 24.375 22.4856 24.375 20.5354 24.375H8.46401C6.51382 24.375 5.53873 24.375 4.79386 23.9955C4.13865 23.6617 3.60595 23.129 3.27211 22.4738C2.89258 21.7289 2.89258 20.7538 2.89258 18.8036V8.12503ZM14.4997 19.7322V12.7679M11.0176 16.25H17.9819" stroke="currentColor" stroke-width="2.08929" stroke-linecap="round" stroke-linejoin="round"/>
</svg>
