<svg viewBox="0 0 18 19" fill="none" xmlns="http://www.w3.org/2000/svg">
<path d="M14.3965 8.60352H10.8018V7.69824H14.3965M14.3965 10.3965H10.8018V9.5H14.3965M14.3965 12.1982H10.8018V11.3018H14.3965M15.9521 4.90332C16.1162 5.08496 16.1982 5.29297 16.1982 5.52734V16.6982C16.1982 16.8213 16.1748 16.9385 16.1279 17.0498C16.0811 17.1611 16.0166 17.2578 15.9346 17.3398C15.8525 17.4219 15.7588 17.4863 15.6533 17.5332C15.542 17.5801 15.4248 17.6035 15.3018 17.6035H4.5C4.37695 17.6035 4.25977 17.5801 4.14844 17.5332C4.03711 17.4863 3.94336 17.4219 3.86719 17.3398C3.78516 17.2578 3.7207 17.1611 3.67383 17.0498C3.62695 16.9385 3.60352 16.8213 3.60352 16.6982V14H1.80176C1.67871 14 1.56152 13.9766 1.4502 13.9297C1.33887 13.8828 1.24219 13.8184 1.16016 13.7363C1.07812 13.6543 1.01367 13.5605 0.966797 13.4551C0.919922 13.3438 0.896484 13.2266 0.896484 13.1035V5.89648C0.896484 5.77344 0.919922 5.65918 0.966797 5.55371C1.01367 5.44238 1.07812 5.3457 1.16016 5.26367C1.24219 5.18164 1.33887 5.11719 1.4502 5.07031C1.56152 5.02344 1.67871 5 1.80176 5H3.60352V2.30176C3.60352 2.17871 3.62695 2.06152 3.67383 1.9502C3.7207 1.83887 3.78516 1.74219 3.86719 1.66016C3.94336 1.57812 4.03711 1.51367 4.14844 1.4668C4.25977 1.41992 4.37695 1.39648 4.5 1.39648H11.9443C12.2197 1.39648 12.4453 1.49902 12.6211 1.7041M12.6035 2.82031V5H14.7744M4.25391 12.1982L5.29102 10.2998C5.34961 10.2002 5.3877 10.1182 5.40527 10.0537H5.42285C5.44629 10.1064 5.4668 10.1533 5.48438 10.1943C5.50195 10.2354 5.52246 10.2734 5.5459 10.3086L6.55664 12.1982H7.81348L6.12598 9.47363L7.76953 6.80176H6.5918L5.65137 8.50684C5.61621 8.57129 5.58691 8.63574 5.56348 8.7002C5.53418 8.75879 5.50488 8.82031 5.47559 8.88477H5.4668C5.44922 8.84375 5.42871 8.79395 5.40527 8.73535C5.37598 8.67676 5.34082 8.60645 5.2998 8.52441L4.4209 6.80176H3.1377L4.7373 9.49121L2.98828 12.1982M15.3018 16.6982V5.89648H12.6035C12.4805 5.89648 12.3633 5.87305 12.252 5.82617C12.1406 5.7793 12.0439 5.71777 11.9619 5.6416C11.8799 5.55957 11.8154 5.46289 11.7686 5.35156C11.7217 5.24023 11.6982 5.12305 11.6982 5V2.30176H4.5V5H9C9.12305 5 9.24023 5.02344 9.35156 5.07031C9.45703 5.11719 9.55078 5.18164 9.63281 5.26367C9.71484 5.3457 9.7793 5.44238 9.82617 5.55371C9.87305 5.65918 9.89648 5.77344 9.89648 5.89648V13.1035C9.89648 13.2266 9.87305 13.3438 9.82617 13.4551C9.7793 13.5605 9.71484 13.6543 9.63281 13.7363C9.55078 13.8184 9.45703 13.8828 9.35156 13.9297C9.24023 13.9766 9.12305 14 9 14H4.5V16.6982H15.3018Z" fill="black"/>
<path d="M4.05176 16.6982V2.30176C4.05176 2.17871 4.0957 2.07324 4.18359 1.98535C4.27148 1.89746 4.37695 1.85352 4.5 1.85352H11.9443C12.0088 1.85352 12.0703 1.86816 12.1289 1.89746C12.1875 1.9209 12.2402 1.95605 12.2871 2.00293L15.6357 5.22852C15.7119 5.31641 15.75 5.41602 15.75 5.52734V16.6982C15.75 16.8213 15.7061 16.9268 15.6182 17.0146C15.5303 17.1025 15.4248 17.1465 15.3018 17.1465H4.5C4.37695 17.1465 4.27148 17.1025 4.18359 17.0146C4.0957 16.9268 4.05176 16.8213 4.05176 16.6982Z" fill="#FAFAFA"/>
<path d="M15.9521 4.90332C16.1162 5.08496 16.1982 5.29297 16.1982 5.52734V16.6982C16.1982 16.8213 16.1748 16.9385 16.1279 17.0498C16.0811 17.1611 16.0166 17.2578 15.9346 17.3398C15.8525 17.4219 15.7588 17.4863 15.6533 17.5332C15.542 17.5801 15.4248 17.6035 15.3018 17.6035H4.5C4.37695 17.6035 4.25977 17.5801 4.14844 17.5332C4.03711 17.4863 3.94336 17.4219 3.86719 17.3398C3.78516 17.2578 3.7207 17.1611 3.67383 17.0498C3.62695 16.9385 3.60352 16.8213 3.60352 16.6982V2.30176C3.60352 2.17871 3.62695 2.06152 3.67383 1.9502C3.7207 1.83887 3.78516 1.74219 3.86719 1.66016C3.94336 1.57812 4.03711 1.51367 4.14844 1.4668C4.25977 1.41992 4.37695 1.39648 4.5 1.39648H11.9443C12.2197 1.39648 12.4453 1.49902 12.6211 1.7041M12.6035 2.82031V5H14.7744M4.5 16.6982H15.3018V5.89648H12.6035C12.4805 5.89648 12.3633 5.87305 12.252 5.82617C12.1406 5.7793 12.0439 5.71777 11.9619 5.6416C11.8799 5.55957 11.8154 5.46289 11.7686 5.35156C11.7217 5.24023 11.6982 5.12305 11.6982 5V2.30176H4.5V16.6982Z" fill="#797774"/>
<path d="M14.3965 10.3965H10.8018V9.5H14.3965V10.3965Z" fill="#D04524"/>
<path d="M14.3965 8.60352H10.8018V7.69824H14.3965V8.60352Z" fill="#FE8568"/>
<path d="M14.3965 12.1982H10.8018V11.3018H14.3965V12.1982Z" fill="#B12E0F"/>
<path d="M9 14H1.80176C1.67871 14 1.56152 13.9766 1.4502 13.9297C1.33887 13.8828 1.24219 13.8184 1.16016 13.7363C1.07812 13.6543 1.01367 13.5605 0.966797 13.4551C0.919922 13.3438 0.896484 13.2266 0.896484 13.1035V5.89648C0.896484 5.77344 0.919922 5.65918 0.966797 5.55371C1.01367 5.44238 1.07812 5.3457 1.16016 5.26367C1.24219 5.18164 1.33887 5.11719 1.4502 5.07031C1.56152 5.02344 1.67871 5 1.80176 5H9C9.12305 5 9.24023 5.02344 9.35156 5.07031C9.45703 5.11719 9.55078 5.18164 9.63281 5.26367C9.71484 5.3457 9.7793 5.44238 9.82617 5.55371C9.87305 5.65918 9.89648 5.77344 9.89648 5.89648V13.1035C9.89648 13.2266 9.87305 13.3438 9.82617 13.4551C9.7793 13.5605 9.71484 13.6543 9.63281 13.7363C9.55078 13.8184 9.45703 13.8828 9.35156 13.9297C9.24023 13.9766 9.12305 14 9 14Z" fill="#D04524"/>
<path d="M3.59961 12.2V6.80005H5.65273C6.10086 6.80005 6.47211 6.88161 6.76648 7.04474C7.06086 7.20786 7.28117 7.43099 7.42742 7.71411C7.57367 7.99536 7.6468 8.31224 7.6468 8.66474C7.6468 9.01911 7.57273 9.33786 7.42461 9.62099C7.27836 9.90224 7.05711 10.1254 6.76086 10.2904C6.46648 10.4535 6.09617 10.535 5.64992 10.535H4.23805V9.79817H5.57117C5.8543 9.79817 6.08398 9.74942 6.26023 9.65192C6.43648 9.55255 6.56586 9.41755 6.64836 9.24692C6.73086 9.0763 6.77211 8.88224 6.77211 8.66474C6.77211 8.44724 6.73086 8.25411 6.64836 8.08536C6.56586 7.91661 6.43555 7.78442 6.25742 7.6888C6.08117 7.59317 5.84867 7.54536 5.55992 7.54536H4.46867L4.49961 12.2H3.59961Z" fill="white"/>
</svg>
