<svg width="28" height="28" viewBox="0 0 28 28" fill="none" xmlns="http://www.w3.org/2000/svg">
<path d="M9.35687 9.28582H9.36847M2.39258 6.03582L2.39258 11.2295C2.39258 11.7973 2.39258 12.0812 2.45672 12.3483C2.51359 12.5852 2.60738 12.8116 2.73466 13.0193C2.87822 13.2536 3.07897 13.4544 3.48047 13.8558L12.3816 22.7569C13.7605 24.1359 14.45 24.8254 15.2451 25.0838C15.9445 25.311 16.6978 25.311 17.3972 25.0838C18.1923 24.8254 18.8818 24.1359 20.2607 22.7569L22.828 20.1897C24.207 18.8107 24.8965 18.1212 25.1548 17.3261C25.382 16.6268 25.382 15.8734 25.1548 15.1741C24.8965 14.379 24.207 13.6895 22.828 12.3105L13.9269 3.40942C13.5254 3.00793 13.3247 2.80718 13.0904 2.66362C12.8827 2.53634 12.6562 2.44254 12.4194 2.38567C12.1522 2.32153 11.8683 2.32153 11.3005 2.32153L6.10686 2.32153C4.80674 2.32153 4.15668 2.32153 3.6601 2.57455C3.2233 2.79712 2.86816 3.15225 2.6456 3.58906C2.39258 4.08564 2.39258 4.7357 2.39258 6.03582ZM9.93722 9.28582C9.93722 9.60634 9.67739 9.86618 9.35687 9.86618C9.03634 9.86618 8.77651 9.60634 8.77651 9.28582C8.77651 8.9653 9.03634 8.70546 9.35687 8.70546C9.67739 8.70546 9.93722 8.9653 9.93722 9.28582Z" stroke="currentColor" stroke-width="2.08929" stroke-linecap="round" stroke-linejoin="round"/>
</svg>
