<svg width="18" height="4" viewBox="0 0 18 4" fill="none" xmlns="http://www.w3.org/2000/svg">
<path d="M9.00033 2.91665C9.50659 2.91665 9.91699 2.50624 9.91699 1.99998C9.91699 1.49372 9.50659 1.08331 9.00033 1.08331C8.49406 1.08331 8.08366 1.49372 8.08366 1.99998C8.08366 2.50624 8.49406 2.91665 9.00033 2.91665Z" stroke="#494949" stroke-width="1.8" stroke-linecap="round" stroke-linejoin="round"/>
<path d="M15.417 2.91665C15.9233 2.91665 16.3337 2.50624 16.3337 1.99998C16.3337 1.49372 15.9233 1.08331 15.417 1.08331C14.9107 1.08331 14.5003 1.49372 14.5003 1.99998C14.5003 2.50624 14.9107 2.91665 15.417 2.91665Z" stroke="#494949" stroke-width="1.8" stroke-linecap="round" stroke-linejoin="round"/>
<path d="M2.58366 2.91665C3.08992 2.91665 3.50033 2.50624 3.50033 1.99998C3.50033 1.49372 3.08992 1.08331 2.58366 1.08331C2.0774 1.08331 1.66699 1.49372 1.66699 1.99998C1.66699 2.50624 2.0774 2.91665 2.58366 2.91665Z" stroke="#494949" stroke-width="1.8" stroke-linecap="round" stroke-linejoin="round"/>
</svg>
