<svg viewBox="0 0 18 19" fill="none" xmlns="http://www.w3.org/2000/svg">
<path d="M6.75 12.125H5.625C4.57833 12.125 4.05499 12.125 3.62914 12.2542C2.67034 12.545 1.92003 13.2953 1.62918 14.2541C1.5 14.68 1.5 15.2033 1.5 16.25M10.875 6.125C10.875 7.98896 9.36396 9.5 7.5 9.5C5.63604 9.5 4.125 7.98896 4.125 6.125C4.125 4.26104 5.63604 2.75 7.5 2.75C9.36396 2.75 10.875 4.26104 10.875 6.125ZM8.25 16.25L10.576 15.5854C10.6874 15.5536 10.7431 15.5377 10.795 15.5138C10.8412 15.4927 10.885 15.4669 10.9259 15.4368C10.972 15.403 11.013 15.362 11.0949 15.2801L15.9375 10.4375C16.4553 9.91975 16.4553 9.08025 15.9375 8.56248C15.4197 8.04472 14.5803 8.04473 14.0625 8.5625L9.21988 13.4051C9.13796 13.487 9.097 13.528 9.06318 13.5741C9.03314 13.615 9.00734 13.6588 8.98616 13.705C8.96231 13.7569 8.9464 13.8126 8.91457 13.924L8.25 16.25Z" stroke="currentColor" stroke-width="1.4" stroke-linecap="round" stroke-linejoin="round"/>
</svg>
