<svg viewBox="0 0 18 19" fill="none" xmlns="http://www.w3.org/2000/svg">
<path d="M3.12891 6.80176H2.14453L3.34863 12.1982H4.49121L5.25586 8.62988C5.26172 8.60059 5.27051 8.55078 5.28223 8.48047C5.29395 8.4043 5.30859 8.32812 5.32617 8.25195C5.33789 8.16992 5.34961 8.09375 5.36133 8.02344C5.37305 7.94727 5.38184 7.8916 5.3877 7.85645C5.3877 7.8916 5.39355 7.94434 5.40527 8.01465C5.41699 8.0791 5.43164 8.14941 5.44922 8.22559C5.46094 8.30176 5.47559 8.37793 5.49316 8.4541C5.50488 8.52441 5.5166 8.58008 5.52832 8.62109L6.33691 12.1982H7.4707L8.65723 6.80176H7.69043L7.00488 10.5371C6.98145 10.666 6.96387 10.7861 6.95215 10.8975C6.93457 11.0088 6.91992 11.1143 6.9082 11.2139C6.89062 11.0732 6.87598 10.9443 6.86426 10.8271C6.84668 10.71 6.82617 10.6045 6.80273 10.5107L5.9502 6.80176H4.88672L4.06055 10.5723C4.04883 10.6133 4.04004 10.6631 4.03418 10.7217C4.02246 10.7744 4.01367 10.833 4.00781 10.8975C3.99609 10.9561 3.98438 11.0146 3.97266 11.0732C3.96094 11.1318 3.95215 11.1816 3.94629 11.2227C3.94629 11.1992 3.94629 11.1729 3.94629 11.1436C3.94043 11.1143 3.93457 11.0762 3.92871 11.0293C3.92285 10.9766 3.91699 10.915 3.91113 10.8447C3.89941 10.7744 3.88477 10.6836 3.86719 10.5723M14.3965 8.60352H10.8018V7.69824H14.3965M14.3965 10.3965H10.8018V9.5H14.3965M14.3965 12.1982H10.8018V11.3018H14.3965M15.9521 4.87695C16.1162 5.06445 16.1982 5.27246 16.1982 5.50098V16.707C16.1982 16.8301 16.1748 16.9473 16.1279 17.0586C16.0811 17.1641 16.0166 17.2578 15.9346 17.3398C15.8525 17.4219 15.7588 17.4863 15.6533 17.5332C15.542 17.5801 15.4248 17.6035 15.3018 17.6035H4.5C4.37695 17.6035 4.25977 17.5801 4.14844 17.5332C4.03711 17.4863 3.94336 17.4219 3.86719 17.3398C3.78516 17.2578 3.7207 17.1641 3.67383 17.0586C3.62695 16.9473 3.60352 16.8301 3.60352 16.707V14H1.80176C1.67871 14 1.56152 13.9766 1.4502 13.9297C1.33887 13.8828 1.24219 13.8184 1.16016 13.7363C1.07812 13.6543 1.01367 13.5605 0.966797 13.4551C0.919922 13.3438 0.896484 13.2266 0.896484 13.1035V5.89648C0.896484 5.77344 0.919922 5.65918 0.966797 5.55371C1.01367 5.44238 1.07812 5.3457 1.16016 5.26367C1.24219 5.18164 1.33887 5.11719 1.4502 5.07031C1.56152 5.02344 1.67871 5 1.80176 5H3.60352V2.29297C3.60352 2.16992 3.62695 2.05566 3.67383 1.9502C3.7207 1.83887 3.78516 1.74219 3.86719 1.66016C3.94336 1.57812 4.03711 1.51367 4.14844 1.4668C4.25977 1.41992 4.37695 1.39648 4.5 1.39648H11.9443C12.2197 1.39648 12.4453 1.49902 12.6211 1.7041M12.6035 5H14.792L12.6035 2.81152M15.3018 5.89648H12.6035C12.4805 5.89648 12.3633 5.87305 12.252 5.82617C12.1406 5.7793 12.0439 5.71777 11.9619 5.6416C11.8799 5.55957 11.8154 5.46289 11.7686 5.35156C11.7217 5.24023 11.6982 5.12305 11.6982 5V2.29297H4.5V5H9C9.12305 5 9.24023 5.02344 9.35156 5.07031C9.45703 5.11719 9.55078 5.18164 9.63281 5.26367C9.71484 5.3457 9.7793 5.44238 9.82617 5.55371C9.87305 5.65918 9.89648 5.77344 9.89648 5.89648V13.1035C9.89648 13.2266 9.87305 13.3438 9.82617 13.4551C9.7793 13.5605 9.71484 13.6543 9.63281 13.7363C9.55078 13.8184 9.45703 13.8828 9.35156 13.9297C9.24023 13.9766 9.12305 14 9 14H4.5V16.6982H15.3018V5.89648Z" fill="black"/>
<path d="M4.05176 16.7861V2.30176C4.05176 2.17871 4.0957 2.07324 4.18359 1.98535C4.27148 1.89746 4.37695 1.85352 4.5 1.85352H11.9443C12.0088 1.85352 12.0703 1.86816 12.1289 1.89746C12.1875 1.9209 12.2402 1.95605 12.2871 2.00293L15.6357 5.22852C15.7119 5.31641 15.75 5.41602 15.75 5.52734V16.7861C15.75 16.915 15.7061 17.0234 15.6182 17.1113C15.5303 17.1992 15.4248 17.2432 15.3018 17.2432H4.5C4.37695 17.2432 4.27148 17.1992 4.18359 17.1113C4.0957 17.0234 4.05176 16.915 4.05176 16.7861Z" fill="#FAFAFA"/>
<path d="M15.9521 4.87695C16.1162 5.06445 16.1982 5.27246 16.1982 5.50098V16.707C16.1982 16.8301 16.1748 16.9473 16.1279 17.0586C16.0811 17.1641 16.0166 17.2578 15.9346 17.3398C15.8525 17.4219 15.7588 17.4863 15.6533 17.5332C15.542 17.5801 15.4248 17.6035 15.3018 17.6035H4.5C4.37695 17.6035 4.25977 17.5801 4.14844 17.5332C4.03711 17.4863 3.94336 17.4219 3.86719 17.3398C3.78516 17.2578 3.7207 17.1641 3.67383 17.0586C3.62695 16.9473 3.60352 16.8301 3.60352 16.707V2.29297C3.60352 2.16992 3.62695 2.05566 3.67383 1.9502C3.7207 1.83887 3.78516 1.74219 3.86719 1.66016C3.94336 1.57812 4.03711 1.51367 4.14844 1.4668C4.25977 1.41992 4.37695 1.39648 4.5 1.39648H11.9443C12.2197 1.39648 12.4453 1.49902 12.6211 1.7041M12.6035 5H14.792L12.6035 2.81152M15.3018 16.6982V5.89648H12.6035C12.4805 5.89648 12.3633 5.87305 12.252 5.82617C12.1406 5.7793 12.0439 5.71777 11.9619 5.6416C11.8799 5.55957 11.8154 5.46289 11.7686 5.35156C11.7217 5.24023 11.6982 5.12305 11.6982 5V2.29297H4.5V16.6982H15.3018Z" fill="#797774"/>
<path d="M14.3965 8.60352H10.8018V7.69824H14.3965V8.60352Z" fill="#41A5EE"/>
<path d="M14.3965 10.3965H10.8018V9.5H14.3965V10.3965Z" fill="#2B7CD3"/>
<path d="M14.3965 12.1982H10.8018V11.3018H14.3965V12.1982Z" fill="#185ABD"/>
<path d="M9 14H1.80176C1.67871 14 1.56152 13.9766 1.4502 13.9297C1.33887 13.8828 1.24219 13.8184 1.16016 13.7363C1.07812 13.6543 1.01367 13.5605 0.966797 13.4551C0.919922 13.3438 0.896484 13.2266 0.896484 13.1035V5.89648C0.896484 5.77344 0.919922 5.65918 0.966797 5.55371C1.01367 5.44238 1.07812 5.3457 1.16016 5.26367C1.24219 5.18164 1.33887 5.11719 1.4502 5.07031C1.56152 5.02344 1.67871 5 1.80176 5H9C9.12305 5 9.24023 5.02344 9.35156 5.07031C9.45703 5.11719 9.55078 5.18164 9.63281 5.26367C9.71484 5.3457 9.7793 5.44238 9.82617 5.55371C9.87305 5.65918 9.89648 5.77344 9.89648 5.89648V13.1035C9.89648 13.2266 9.87305 13.3438 9.82617 13.4551C9.7793 13.5605 9.71484 13.6543 9.63281 13.7363C9.55078 13.8184 9.45703 13.8828 9.35156 13.9297C9.24023 13.9766 9.12305 14 9 14Z" fill="#185ABD"/>
<path d="M3.86719 10.5723C3.88477 10.6836 3.89941 10.7744 3.91113 10.8447C3.91699 10.915 3.92285 10.9766 3.92871 11.0293C3.93457 11.0762 3.94043 11.1143 3.94629 11.1436C3.94629 11.1729 3.94629 11.1992 3.94629 11.2227C3.95215 11.1816 3.96094 11.1318 3.97266 11.0732C3.98438 11.0146 3.99609 10.9561 4.00781 10.8975C4.01367 10.833 4.02246 10.7744 4.03418 10.7217C4.04004 10.6631 4.04883 10.6133 4.06055 10.5723L4.88672 6.80176H5.9502L6.80273 10.5107C6.82617 10.6045 6.84668 10.71 6.86426 10.8271C6.87598 10.9443 6.89062 11.0732 6.9082 11.2139C6.91992 11.1143 6.93457 11.0088 6.95215 10.8975C6.96387 10.7861 6.98145 10.666 7.00488 10.5371L7.69043 6.80176H8.65723L7.4707 12.1982H6.33691L5.52832 8.62109C5.5166 8.58008 5.50488 8.52441 5.49316 8.4541C5.47559 8.37793 5.46094 8.30176 5.44922 8.22559C5.43164 8.14941 5.41699 8.0791 5.40527 8.01465C5.39355 7.94434 5.3877 7.8916 5.3877 7.85645C5.38184 7.8916 5.37305 7.94727 5.36133 8.02344C5.34961 8.09375 5.33789 8.16992 5.32617 8.25195C5.30859 8.32812 5.29395 8.4043 5.28223 8.48047C5.27051 8.55078 5.26172 8.60059 5.25586 8.62988L4.49121 12.1982H3.34863L2.14453 6.80176H3.12891L3.86719 10.5723Z" fill="white"/>
</svg>
