<svg width="80" height="80" viewBox="0 0 80 80" fill="none" xmlns="http://www.w3.org/2000/svg">
<path d="M58.75 17.5H58.7087C58.0625 7.74125 49.9188 0 40 0C30.0812 0 21.9375 7.74125 21.2913 17.5H21.25C12.29 17.5 5 24.79 5 33.75C5 42.29 11.6213 49.3113 20 49.9525V73.75C20 77.1963 22.8037 80 26.25 80H53.75C57.1963 80 60 77.1963 60 73.75V49.9525C68.3787 49.3113 75 42.29 75 33.75C75 24.79 67.71 17.5 58.75 17.5Z" fill="url(#paint0_linear_504_8843)"/>
<path d="M59.9912 39.8587C59.97 39.67 59.7488 37.98 58.5988 36.8313L50.6688 28.9013C49.52 27.7513 47.83 27.5287 47.6412 27.5087C47.595 27.5025 47.5475 27.5 47.5 27.5H26.25C22.8038 27.5 20 30.3038 20 33.75V73.75C20 77.1963 22.8038 80 26.25 80H53.75C57.1963 80 60 77.1963 60 73.75V40C60 39.9525 59.9975 39.905 59.9912 39.8587Z" fill="url(#paint1_linear_504_8843)"/>
<path d="M36.25 52.5V61.25H43.75V52.5H46.25L40 46.25L33.75 52.5H36.25Z" fill="#494949"/>
<path d="M58.5988 36.8312L50.6687 28.9012C49.52 27.7512 47.83 27.5287 47.6412 27.5087C47.2887 27.465 46.9337 27.5812 46.6675 27.8175C46.4012 28.0537 46.25 28.3937 46.25 28.75V35C46.25 38.4462 49.0538 41.25 52.5 41.25H58.75C59.1062 41.25 59.4462 41.0987 59.6825 40.8325C59.9187 40.5662 60.0312 40.2125 59.9913 39.8587C59.9712 39.6687 59.7488 37.98 58.5988 36.8312Z" fill="#E1E1E1"/>
<defs>
<linearGradient id="paint0_linear_504_8843" x1="13.9237" y1="70.2588" x2="66.0763" y2="18.1063" gradientUnits="userSpaceOnUse">
<stop stop-color="#F99C1E"/>
<stop offset="1" stop-color="#FDCB22"/>
</linearGradient>
<linearGradient id="paint1_linear_504_8843" x1="18.7075" y1="75.0425" x2="57.7587" y2="35.9913" gradientUnits="userSpaceOnUse">
<stop stop-color="#DDDDDD"/>
<stop offset="1" stop-color="white"/>
</linearGradient>
</defs>
</svg>
