<svg width="137" height="23" viewBox="0 0 137 23" fill="none" xmlns="http://www.w3.org/2000/svg">
<path fill-rule="evenodd" clip-rule="evenodd" d="M13.7188 6.33616H29.436V0H13.7188V6.33616Z" fill="#F49D1E"/>
<path fill-rule="evenodd" clip-rule="evenodd" d="M0 2.92334V22.9999H29.436V8.41226H11.8034L11.7563 2.92334H0Z" fill="#F9BD17"/>
<path fill-rule="evenodd" clip-rule="evenodd" d="M36.9463 8.15576V22.7362H40.0492V16.7041H47.1095V13.9742H40.0492V10.8894H47.2616V8.15576H36.9463Z" fill="#494949"/>
<path fill-rule="evenodd" clip-rule="evenodd" d="M60.7694 15.4588C60.7694 12.7252 59.0206 10.6723 56.3304 10.6723C53.6439 10.6723 51.9168 12.7252 51.9168 15.4588C51.9168 18.1707 53.6439 20.2453 56.3304 20.2453C59.0206 20.2453 60.7694 18.1707 60.7694 15.4588ZM48.7275 15.4566C48.7275 11.0611 51.9427 7.91479 56.3309 7.91479C60.7445 7.91479 63.9597 11.0611 63.9597 15.4566C63.9597 19.8521 60.7445 22.9985 56.3309 22.9985C51.9427 22.9985 48.7275 19.8521 48.7275 15.4566Z" fill="#494949"/>
<path fill-rule="evenodd" clip-rule="evenodd" d="M66.1455 22.7367V8.15991H69.2484V20.0067H75.4144V22.7367H66.1455Z" fill="#494949"/>
<path fill-rule="evenodd" clip-rule="evenodd" d="M87.8937 15.4561C87.8937 12.8746 86.3224 10.8868 83.3281 10.8868H80.6814V20.0037H83.3281C86.2101 20.0037 87.8937 17.9254 87.8937 15.4561ZM77.5781 22.7352V8.15845H83.3277C87.8934 8.15845 91.0615 11.0622 91.0615 15.4577C91.0615 19.8532 87.8934 22.7352 83.3277 22.7352H77.5781Z" fill="#494949"/>
<path fill-rule="evenodd" clip-rule="evenodd" d="M93.2666 22.7367V8.15991H103.582V10.8899H96.3695V13.9747H103.43V16.7047H96.3695V20.0067H103.582V22.7367H93.2666Z" fill="#494949"/>
<path fill-rule="evenodd" clip-rule="evenodd" d="M114.556 12.8569C114.556 11.6295 113.615 10.8908 112.373 10.8908H109.114V14.8229H112.373C113.615 14.8229 114.556 14.077 114.556 12.8569ZM114.248 22.7388L111.384 17.5577H109.114V22.7388H106.011V8.15845H112.828C115.87 8.15845 117.724 10.1462 117.724 12.8581C117.724 15.436 116.109 16.8118 114.537 17.1848L117.81 22.7388H114.248Z" fill="#494949"/>
<mask id="mask0_561_1029" style="mask-type:luminance" maskUnits="userSpaceOnUse" x="0" y="0" width="137" height="23">
<path fill-rule="evenodd" clip-rule="evenodd" d="M0 22.9984H136.781V0H0V22.9984Z" fill="white"/>
</mask>
<g mask="url(#mask0_561_1029)">
<path fill-rule="evenodd" clip-rule="evenodd" d="M120.065 22.7352H123.167V8.15845H120.065V22.7352Z" fill="#494949"/>
<path fill-rule="evenodd" clip-rule="evenodd" d="M129.416 22.7367V10.8899H125.154V8.15991H136.78V10.8899H132.54V22.7367H129.416Z" fill="#494949"/>
</g>
</svg>
